<?xml version="1.0" standalone="no"?><!DOCTYPE svg PUBLIC "-//W3C//DTD SVG 1.1//EN" "http://www.w3.org/Graphics/SVG/1.1/DTD/svg11.dtd"><svg t="1752324746566" class="icon" viewBox="0 0 1024 1024" version="1.1" xmlns="http://www.w3.org/2000/svg" p-id="5278" width="256" height="256" xmlns:xlink="http://www.w3.org/1999/xlink"><path d="M511.616 85.333333c-27.946667 0-54.058667 14.08-69.717333 37.546667l-256.810667 385.706667a86.186667 86.186667 0 0 0 22.613333 118.570666l6.101334 3.84c12.501333 7.04 26.624 10.794667 41.002666 10.794667h172.544v211.498667c0 47.146667 37.674667 85.376 84.138667 85.376 27.861333 0 53.888-13.952 69.546667-37.290667l257.706666-383.829333a86.186667 86.186667 0 0 0-22.186666-118.613334l-6.144-3.882666a83.2 83.2 0 0 0-41.216-10.965334h-173.44v-213.333333C595.754667 123.52 558.08 85.333333 511.616 85.333333z" fill="#8a8ef0" p-id="5279"></path></svg>